<svg height="512pt" viewBox="0 -19 512.00062 512" width="512pt" xmlns="http://www.w3.org/2000/svg"><path d="m435.835938 248.308594c-12.371094-15.6875-31.761719-27.441406-59.285157-35.941406l-3.15625-.96875c-6.46875-1.949219-13.15625-3.964844-19.105469-7.46875-3.125-1.84375-5.859374-4.058594-8.128906-6.585938l-2.03125-2.261719-2.945312.765625c-7.777344 2.019532-15.613282 4.09375-23.421875 6.164063l-5.917969 1.566406 1.589844 5.003906c3.445312 10.835938 2.074218 22.8125-3.667969 32.03125-6.753906 10.851563-19.636719 17.863281-32.828125 17.863281-3.058594 0-6.085938-.378906-8.984375-1.121093-13.34375-3.453125-24.445313-14.992188-27.621094-28.71875l-1.183593-5.105469-5.046876 1.421875c-11.300781 3.191406-23.53125 6.699219-37.386718 10.722656l-4.21875 1.222657.671875 4.34375c1.089843 7.058593-.273438 14.097656-3.84375 19.824218-5.121094 8.230469-14.90625 13.550782-24.933594 13.550782-2.351563 0-4.636719-.285157-6.8125-.851563-8.300781-2.136719-15.464844-8.296875-19.164063-16.480469l-1.808593-4-4.199219 1.277344c-14.664062 4.460938-27.714844 8.617188-41.519531 13.015625l-4.632813 1.476563c-3.671875 1.167968-7.414062 2.359374-11.265625 3.574218-8.964843 2.839844-17.613281 6.558594-20.195312 14.460938-1.296875 3.992187-.570313 8.375 2.050781 12.347656 3.621094 5.46875 10.207031 9.367188 16.769531 9.929688.875.074218 1.769531.113281 2.660157.113281 8.800781 0 16.949218-3.515625 25.59375-7.246094l.113281-.050781c1.21875-.523438 2.433593-1.050782 3.636719-1.558594 5.40625-2.269531 13.523437-5.289062 21.539062-5.289062 3.988281 0 7.648438.753906 10.875 2.246093 5.214844 2.417969 9.464844 6.742188 13.609375 10.964844 5.921875 6.007813 11.515625 11.683594 19.480469 11.9375.183594.003906.363281.007813.546875.007813 8.25 0 15.128906-6.28125 21.195312-11.824219l.898438-.824219c6.964843-6.328125 13.324219-9.539062 18.902343-9.539062 1.683594 0 3.269532.285156 4.851563.871093 6.203125 2.292969 10.480469 9.25 11.4375 18.582031.296875 3.003907.328125 6.066407.355469 8.773438.054687 4.695312.105468 9.550781 1.316406 14.183594 2.546875 9.714844 10.414062 17.824218 20.050781 20.660156 2.578125.753906 5.28125 1.136719 8.03125 1.136719 7.410157 0 14.699219-2.800781 19.996094-7.6875 8.367187-7.6875 11.480469-19.28125 13.945313-30.46875l.214843-.957031c2.277344-10.359376 4.859375-22.097657 12.15625-30.417969 4.40625-5.019531 11.203125-8.316407 17.746094-8.601563.292969-.011718.585937-.019531.878906-.019531 4.511719 0 8.613281 1.554687 11.550781 4.371094 3.777344 3.628906 5.671876 9.152343 7.347657 14.035156 2.167969 6.289063 4.414062 12.792969 10.34375 15.574219 1.652343.773437 3.429687 1.167968 5.285156 1.167968 8.175781 0 15.90625-7.699218 20.410156-14.910156l1.128907-1.808594c5.308593-8.566406 11.332031-18.273437 21.234374-19.292968.527344-.054688 1.066407-.082032 1.605469-.082032 4.761719 0 9.179688 2.179688 13.5 4.308594 2.375 1.175782 4.617188 2.289063 6.953125 3.078125 8.128906 2.792969 16.632813 4.585938 25.269532 5.324219l6.519531.558594-1.175781-6.4375c-3.089844-16.953125-8.90625-30.671875-17.78125-41.9375zm0 0" fill="#ff8984"/><path d="m91.167969 110.121094 1.867187.929687 1.972656-.675781c45.457032-15.519531 92.257813-28.234375 139.109376-37.800781l-49.984376 43.328125 10.425782 1.78125c17.539062 2.992187 35.527344 4.507812 53.46875 4.507812 30.652344 0 60.960937-4.347656 90.089844-12.921875 7.804687-2.300781 16.757812-5.226562 24.222656-10.796875 8.058594-6.011718 13.03125-14.605468 13.300781-22.992187.351563-11.257813-7.355469-20.625-14.691406-25.644531-8.445313-5.765626-18.371094-8.316407-27.816407-10.429688-32.359374-7.234375-66.429687-10.902344-101.265624-10.902344-38.628907 0-78.960938 4.503906-119.867188 13.394532-14.746094 3.203124-29.476562 7.789062-37.363281 19.574218-5.347657 7.984375-6.554688 18.527344-3.148438 27.515625 2.972657 7.851563 11.617188 17.132813 19.679688 21.132813zm0 0" fill="#ff8984"/><path d="m454.683594 296.5625-4.183594-.265625c-9.378906-.605469-18.628906-2.449219-27.488281-5.480469-2.402344-.828125-4.8125-2.027344-6.960938-3.097656-4.289062-2.113281-8.71875-4.296875-13.539062-4.296875-.53125 0-1.058594.027344-1.570313.078125-9.898437 1.007812-15.917968 10.71875-21.238281 19.308594l-1.121094 1.800781c-5.675781 9.058594-13.71875 14.910156-20.492187 14.910156-1.785156 0-3.535156-.394531-5.203125-1.175781-5.929688-2.769531-8.074219-8.992188-10.339844-15.574219-1.761719-5.128906-3.585937-10.429687-7.355469-14.03125-2.980468-2.863281-6.984375-4.375-11.570312-4.375-.289063 0-.570313.003907-.855469.015625-6.542969.28125-13.339844 3.574219-17.746094 8.597656-7.292969 8.316407-9.769531 19.554688-12.167969 30.445313l-.195312.90625c-2.476562 11.21875-5.59375 22.816406-13.945312 30.5-5.289063 4.871094-12.605469 7.667969-20.0625 7.667969-2.757813 0-5.441407-.378906-7.976563-1.128906-9.640625-2.835938-17.507813-10.945313-20.046875-20.667969-1.203125-4.597657-1.257812-9.238281-1.316406-14.167969-.03125-2.871094-.0625-5.839844-.355469-8.757812-.363281-3.5-2.253906-15.191407-11.445313-18.597657-1.5-.554687-3.109374-.835937-4.777343-.835937-5.640625 0-12.023438 3.203125-18.945313 9.5l-.925781.832031c-6.078125 5.542969-12.96875 11.824219-21.191406 11.824219-.179688 0-.359375 0-.542969-.007813-7.976562-.261719-13.835938-6.207031-19.507812-11.964843-4.121094-4.195313-8.378907-8.527344-13.585938-10.933594-3.222656-1.492188-6.894531-2.25-10.910156-2.25-8.007813 0-16.105469 3.015625-21.507813 5.289062-1.246093.527344-2.515625 1.066406-3.757812 1.605469-7.230469 3.125-14.707031 6.355469-22.390625 7.082031l-6.257813.59375 2.03125 6.089844 21.761719 111.730469c0 .042969-.261719 5.429687-.261719 5.429687l277.53125-3.375c24.105469-.292968 47.039063-1.800781 62.660157-16.828125 15.832031-15.253906 18.066406-39.445312 18.996093-62.910156.644531-16.199219 1-33.382813-.777343-49.316406zm0 0" fill="#ffdac4"/><path d="m101.628906 194.238281c.96875.488281 2.046875.734375 3.210938.734375 2.464844 0 4.980468-1.140625 7.105468-2.25l39.988282-20.796875 3.539062-1.269531-.222656-3.738281c-.0625-1.042969-.101562-2.167969-.121094-3.425781-.128906-10.277344 2.234375-19.347657 6.824219-26.21875 3.429687-5.125 8.351563-9.386719 12.691406-13.152344l44.789063-38.828125-4.359375-8.660157c-40.34375 8.980469-80.609375 20.289063-119.679688 33.621094l-3.644531 1.242188 5.109375 72.480468c.285156 4.023438 1.070313 8.386719 4.769531 10.261719zm0 0" fill="#ffdac4"/><path d="m311.375 203.476562c-1.371094-2.851562-3.066406-5.464843-5.042969-7.773437-9.128906-10.617187-20.105469-12.847656-27.703125-12.847656-5.078125 0-10.289062 1.011719-15.066406 2.925781-12.3125 4.933594-25.109375 17.160156-24.105469 36.679688.816407 15.902343 13.066407 30.902343 28.496094 34.886718 2.847656.734375 5.832031 1.105469 8.875 1.105469 13.261719 0 26.191406-7 32.9375-17.832031 6.597656-10.589844 7.285156-25.03125 1.757813-36.8125zm0 0" fill="#ed6d66"/><path d="m165.671875 217.207031c-3.851563 0-7.800781.765625-11.429687 2.214844-9.347657 3.746094-19.0625 13.027344-18.296876 27.847656.617188 12.082031 9.917969 23.472657 21.632813 26.496094 2.171875.558594 4.445313.84375 6.757813.84375 10.058593 0 19.867187-5.320313 24.988281-13.550781 6.394531-10.261719 5.269531-24.921875-2.609375-34.101563-6.921875-8.058593-15.261719-9.75-21.042969-9.75zm0 0" fill="#ed6d66"/><path d="m496.230469 241.292969.640625.226562-5.140625-10.886719c-9.988281-21.175781-25.078125-39.394531-43.636719-52.683593-17.734375-12.71875-37.597656-20.195313-57.929688-21.882813 10.308594.847656 20.488282 3.167969 30.359376 6.949219l5.871093 2.246094.867188-6.226563c2.40625-17.289062 4.480469-34.1875 3.417969-50.933594-.132813-2.128906-.351563-4.429687-.644532-6.84375l-1.417968-11.5625-.484376.589844c-2.917968-13.019531-7.988281-24.183594-15.140624-33.164062-15.796876-19.855469-40.886719-28.957032-63.34375-35.242188-40.03125-11.203125-81.6875-16.882812-123.808594-16.882812-56.722656 0-111.996094 10.105468-164.289063 30.035156-15.386719 5.867188-31.046875 13.042969-41.347656 25.714844-2.839844 3.488281-5.304687 7.460937-7.335937 11.808594l-.695313-1.46875-3.539063 13.148437c-3.65625 13.578125-3.8125 28.316406-3.542968 39.640625.535156 22.292969 2.742187 48.082031 15.042968 70.339844 8.320313 15.046875 25.203126 32.402344 47.640626 35.976562l6.191406.988282-.011719-.132813 4.980469-.324219c19.230468-1.242187 34.621094-12.535156 50.910156-24.484375l.097656-.074219c8.132813-5.949218 16.539063-12.101562 25.402344-16.816406l3.347656-1.777344-.355468-1.632812.234374 1.023438.316407.589843 2.667969 24.675781c.003906.171876.011718.371094.039062.597657l.488281 4.296875 4.324219.132812c7.929688.242188 15.144531 3.691406 20.316406 9.71875 1.527344 1.769532 2.84375 3.8125 3.917969 6.082032l1.820313 3.851562 4.09375-1.1875c12.519531-3.640625 25.714843-7.421875 39.226562-11.242188l3.566406-1.007812.070313-3.707031c.292969-15.117188 9.542969-28.136719 24.136719-33.972657 4.839843-1.9375 9.835937-2.917968 14.851562-2.917968 10.894531 0 20.808594 4.558594 27.917969 12.828125 1.242187 1.449219 2.394531 3.042969 3.425781 4.734375l1.945312 3.199218 3.617188-.964843c7.582031-2.027344 15.210938-4.035157 22.804688-6.023438l5.484374-1.4375-1.757812-4.386719c2.28125 5.0625 6.617188 9.671876 12.453125 13.117188 5.949219 3.5 12.640625 5.515625 19.109375 7.464844 1.046875.316406 2.09375.632812 3.148438.960937 27.523437 8.5 46.914062 20.257813 59.28125 35.9375 1.144531 1.460938 2.25 2.984375 3.382812 4.65625l3.285156 4.855469-.078125.242188 1.015625 1.878906c13.824219 25.59375 13.800782 57.226562 12.492188 90.101562-.9375 23.480469-3.179688 47.679688-19.011719 62.917969-15.585937 15.007813-39.5 16.542969-62.652344 16.832031l-283.46875 3.449219-.910156 3.78125c-2.515625 10.453125 5.019531 21.496094 13.753906 26.136719 8.613281 4.574218 18.628907 5.160156 26.394531 5.160156 2.988282 0 5.914063-.097656 8.753907-.191406l238.742187-7.828125c32.394532-1.070313 61.023438-3.304688 83.34375-19.929688 19.660156-14.644531 32.371094-39.070312 40.003906-76.871093 9.46875-46.964844 7.945313-87.96875-4.535156-121.871094-.035156-.105469-.074218-.214844-.117187-.328125zm-427.554688-116.371094 1.382813-1.96875c-.410156.601563-.78125 1.230469-1.097656 1.910156-.433594.941407-.738282 1.925781-.957032 2.9375.019532-.089843.03125-.179687.050782-.265625zm-.957031 4.601563c-.125 1.015624-.171875 2.042968-.175781 3.050781.003906-1.015625.054687-2.039063.175781-3.050781zm.238281-1.480469c-.089843.4375-.164062.882812-.21875 1.324219.054688-.445313.128907-.886719.21875-1.324219zm-.230469 9.015625c-.027343-.394532-.050781-.796875-.078124-1.207032.027343.433594.054687.867188.082031 1.285157l1.40625 21.230469zm-.183593-4.265625c.003906.394531.007812.792969.019531 1.179687-.011719-.390625-.015625-.785156-.019531-1.179687zm.039062 1.667969c.011719.316406.027344.628906.042969.9375-.015625-.3125-.03125-.625-.042969-.9375zm87.347657 32.523437-44.378907 23.078125c-1.363281.714844-3.648437 1.910156-5.730469 1.910156-.679687 0-1.289062-.136718-1.835937-.40625-2.367187-1.1875-2.90625-4.605468-3.125-7.804687l-5.171875-73.277344-9.988281 3.464844c-.382813.132812-.765625.269531-1.148438.410156.378907-.136719.753907-.273437 1.125-.40625l10.8125-3.769531-7.605469-5.621094c-5.953124-4.402344-11.539062-11.246094-13.585937-16.640625-3.066406-8.097656-1.984375-17.589844 2.832031-24.777344 7.296875-10.90625 21.375-15.246093 35.503906-18.316406 40.703126-8.847656 80.820313-13.332031 119.234376-13.332031 34.613281 0 68.464843 3.648437 100.613281 10.835937 8.757812 1.957031 18.769531 4.507813 26.777343 9.976563 8.515626 5.824218 13.644532 14.667968 13.386719 23.074218-.242187 7.480469-4.761719 15.214844-12.09375 20.679688-7.101562 5.296875-15.738281 8.105469-23.28125 10.324219-28.851562 8.496093-58.886719 12.804687-89.269531 12.804687-18.648438 0-37.296875-1.648437-55.433594-4.898437l-2.960937-3.136719-15.019531 13.019531c-4.535157 3.933594-9.226563 8.003907-12.605469 13.074219-.773438 1.140625-1.476563 2.347656-2.152344 3.6875l-1.621094 3.210938-.070312-.011719-.085938.324219-1.273437 2.519531.558594.09375-.398438 1.449219c-1.253906 4.585937-1.859375 9.617187-1.804688 14.960937.050782 4.074219.398438 7.601563.933594 11.042969-.03125-.203125-.070312-.410156-.101562-.617188zm-73.398438-51.863281c.101562-.042969.207031-.082032.3125-.125-.105469.042968-.210938.082031-.3125.125zm.988281-.382813c.246094-.089843.492188-.179687.738281-.269531-.246093.089844-.492187.179688-.738281.269531zm74.40625 64.574219c-.078125-.382812-.148437-.761719-.222656-1.144531.074219.378906.144531.761719.222656 1.144531zm-.449219-2.34375c-.109374-.605469-.210937-1.214844-.308593-1.824219.097656.609375.199219 1.214844.308593 1.824219zm183.976563 9.644531c.003906.011719.003906.023438.007813.035157-.003907-.011719-.003907-.019532-.007813-.035157zm32.070313-30.550781c-8.75.710938-21.363282 4.59375-28.101563 13.191406-.125.160156-.230469.328125-.351563.488282.117188-.15625.21875-.324219.34375-.480469 6.738282-8.585938 18.941407-12.449219 28.109376-13.203125 2.929687-.238282 5.894531-.359375 8.816406-.359375 1.398437 0 2.796875.03125 4.191406.085937-1.394531-.054687-2.792969-.085937-4.191406-.085937-2.925782.003906-5.890625.121093-8.816406.363281zm17.480468-.007812c-1.394531-.113282-2.789062-.199219-4.1875-.257813 1.398438.058594 2.792969.144531 4.1875.257813zm0 0" fill="#f7b36f"/><path d="m501.019531 239.8125c-9.710937-26.359375-27.472656-49.773438-50.007812-65.929688-6.1875-4.433593-12.59375-8.242187-19.171875-11.425781 2.492187-17.792969 5.003906-36.175781 3.828125-54.675781-1.367188-21.476562-7.855469-40.070312-18.757813-53.777344-16.683594-20.964844-42.683594-30.441406-65.917968-36.941406-95.3125-26.671875-198.738282-21.949219-291.226563 13.296875-16.039063 6.113281-32.402344 13.644531-43.449219 27.234375-15.257812 18.773438-16.765625 44.101562-16.2265622 66.402344.9882812 41.039062 8.8945312 60.375 15.6679682 72.640625 13.316407 24.097656 36.59375 39.203125 59.984376 39.199219 1.015624 0 2.039062-.027344 3.054687-.085938 20.890625-1.1875 37.726563-13.535156 54.007813-25.476562 7.089843-5.199219 14.367187-10.535157 21.902343-14.863282l1.90625 17.652344c.011719.113281.046875.214844.066407.328125-1.4375.375-2.875.828125-4.296876 1.394531-13.761718 5.507813-22.175781 18.363282-21.433593 32.75.039062.730469.109375 1.457032.195312 2.179688-14.699219 4.476562-27.878906 8.671875-41.777343 13.097656-5.15625 1.640625-10.410157 3.316406-15.886719 5.046875-6.398438 2.027344-19.714844 6.242187-23.433594 17.675781-1.789063 5.488282-.855469 11.40625 2.628906 16.660156 3.949219 5.960938 10.769531 10.386719 17.882813 11.773438-.339844.859375-.457032 1.820312-.265625 2.796875l21.714843 111.457031-.757812.007813c-1.839844.023437-3.519531 1.050781-4.371094 2.683593-3.3125 6.332032-3.3125 13.863282-.007812 21.199219 2.925781 6.5 8.183594 12.132813 14.425781 15.449219 9.078125 4.824219 19.394531 5.746094 28.816406 5.746094 3.066407 0 6.039063-.097656 8.84375-.191406l238.742188-7.832032c27.074219-.886718 60.773437-1.992187 86.167969-20.910156 27.214843-20.273438 36.957031-55.308594 41.914062-79.894531 9.660156-47.914063 8.058594-89.855469-4.761719-124.667969zm-55.835937-57.800781c10.65625 7.636719 20.078125 16.964843 27.953125 27.4375 4.164062 5.535156 7.742187 11.390625 11.117187 17.429687.507813.910156.988282 1.828125 1.46875 2.746094-16.0625 1.6875-31.402344 8.871094-42.972656 20.152344-16.046875-21.316406-39.746094-34.488282-64.71875-42.191406-1.058594-.328126-2.121094-.648438-3.183594-.972657-6.496094-1.960937-12.628906-3.816406-18.019531-6.992187-6.503906-3.832032-10.742187-9.238282-11.632813-14.832032-.753906-4.714843.277344-8.785156 3.152344-12.441406 5.386719-6.863281 16.230469-10.621094 24.585938-11.300781 25.261718-2.058594 50.246094 5.1875 72.25 20.964844zm-109.867188 4.351562c.296875 1.851563.820313 3.667969 1.53125 5.445313-7.597656 1.988281-15.230468 4-22.828125 6.019531-1.148437-1.886719-2.445312-3.691406-3.898437-5.382813-11.917969-13.867187-30.921875-18.304687-48.417969-11.300781-16.507813 6.605469-26.953125 21.515625-27.28125 38.519531-13.054687 3.6875-26.222656 7.464844-39.253906 11.253907-1.226563-2.582031-2.769531-5.023438-4.65625-7.21875-6.203125-7.214844-14.835938-11.167969-23.953125-11.449219-.003906-.085938.007812-.171875-.003906-.257812l-2.691407-24.972657c-.070312-.652343-.273437-1.269531-.574219-1.832031l-.175781-.792969c-1.671875-7.65625-2.882812-13.183593-2.980469-20.964843-.0625-5.167969.789063-9.726563 2.308594-13.847657 13.449219 1.589844 26.871094 2.28125 40.402344 2.28125 33.0625 0 66.765625-4.074219 102.945312-8.976562 20.332032-2.75 43.378907-5.875 65.4375-12.746094 21.71875-6.765625 39.792969-16.472656 53.855469-28.878906.117188 1.128906.222657 2.257812.296875 3.386719.574219 8.386718.707032 16.734374.148438 25.144531-.167969 2.542969-3.777344 28.328125-3.210938 28.546875-16.125-6.164063-33.089844-8.65625-50.195312-7.261719-10.222656.832031-23.898438 5.234375-31.640625 15.09375-4.558594 5.804687-6.34375 12.785156-5.164063 20.191406zm-29.792968 51.609375c-7.3125 11.746094-22.925782 17.996094-36.324219 14.535156-13.394531-3.457031-24.035157-16.484374-24.746094-30.304687-.875-16.890625 10.257813-27.488281 20.964844-31.773437 10.710937-4.289063 26.089843-4.296876 37.117187 8.535156 1.734375 2.019531 3.175782 4.273437 4.332032 6.679687.03125.070313.0625.144531.097656.214844 4.746094 10.050781 4.421875 22.695313-1.441406 32.113281zm-242.195313-198.269531c90.5-34.488281 191.703125-39.109375 284.96875-13.007813 21.691406 6.070313 45.878906 14.800782 60.785156 33.539063 6.804688 8.550781 11.386719 18.660156 13.964844 29.261719-.03125.027344-.0625.046875-.09375.074218-13.511719 13.484376-31.914063 23.921876-54.699219 31.023438-21.257812 6.621094-43.863281 9.683594-63.808594 12.382812-48.839843 6.617188-93.046874 11.703126-136.902343 7.117188 5.230469-7.304688 12.589843-13.210938 19.980469-19.148438.066406.035157.121093.078126.1875.113282 10.230468 4.796875 21.660156 5.8125 32.480468 6.195312 3.984375.140625 7.960938.210938 11.9375.210938 34.726563 0 69.066406-5.371094 102.230469-16.007813 9.148437-2.933593 19.847656-6.742187 29.871094-12.761719 3.890625-2.335937 8.710937-5.671874 11.523437-10.792968 4.058594-7.394532 3.191406-17.386719-2.316406-26.738282-8.589844-14.578124-24.59375-24.957031-48.929688-31.734374-22.429687-6.242188-47.890624-9.484376-80.128906-10.191407-50.539062-1.109375-93.609375 4.15625-131.699218 16.09375-14.46875 4.535157-32.101563 11.78125-40.070313 27.691407-4.179687 8.339843-4.714844 18.597656-1.472656 28.148437 2.375 6.996094 6.597656 13.054687 11.980469 17.394531-4.515626 1.671875-8.832032 3.777344-12.855469 6.792969-.71875.539063-1.363281 1.066406-1.960938 1.59375-.238281-.105469-.480469-.214844-.742187-.285156-21.171875-5.773438-39.511719-21.023438-49.054688-40.785157-.234375-.480468-.546875-.886718-.894531-1.253906.421875-.804687.847656-1.605468 1.3125-2.390625 10.191406-17.179687 26.085937-25.550781 44.40625-32.535156zm175.269531 30.664063c-1.003906-2.039063-3.253906-3.144532-5.484375-2.691407-30.84375 6.289063-61.417969 13.894531-91.628906 22.734375-15.292969 4.476563-30.363281 10.40625-45.765625 14.394532-.09375.023437-.191406.050781-.285156.074218-.4375-.515625-.980469-.953125-1.628906-1.269531-6-2.910156-10.8125-8.617187-13.203126-15.648437-2.386718-7.039063-2.042968-14.492188.945313-20.457032 6.285156-12.546875 21.539063-18.683594 34.125-22.628906 37.03125-11.605469 79.058594-16.71875 128.484375-15.636719 31.382812.6875 56.0625 3.8125 77.667969 9.828125 21.71875 6.046875 35.785156 14.9375 42.996093 27.175782 1.386719 2.355468 5.640626 10.519531 2.167969 16.847656-1.648437 3.003906-4.921875 5.242187-7.90625 7.03125-9.148437 5.496094-19.175781 9.058594-27.777343 11.816406-35.859376 11.496094-73.125 16.65625-110.761719 15.324219-9.34375-.332031-17.242188-1.109375-24.296875-3.53125.964844-.847657 1.917968-1.703125 2.847656-2.574219 5.152344-4.828125 9.710938-10.023438 15.152344-14.742188 7.714844-6.6875 15.425781-13.375 23.140625-20.058593 1.71875-1.492188 2.214843-3.949219 1.210937-5.988281zm-214.085937 121.429687c-11.78125-21.316406-13.902344-46.355469-14.425781-68.039063-.289063-12.035156-.289063-25.042968 2.90625-37.050781 11.058593 18.542969 29.167968 32.785157 49.859374 39.015625-.039062.191406-.078124.386719-.113281.582032-.542969 3.140624-.289062 6.703124.007813 11.167968.046875.734375 5.816406 87.785156 5.816406 87.785156-19.269531-3.078124-35.566406-18.105468-44.050781-33.460937zm125.320312-28.222656c.636719 7.140625 2.410157 21.761719 3.164063 21.363281-9.21875 4.894531-17.785156 11.171875-26.101563 17.273438-15.691406 11.503906-30.519531 22.375-48.277343 23.527343l-5.894532-88.933593c-.222656-3.34375-.472656-7.132813.78125-9.84375 3.820313-8.242188 16.066406-8.40625 23.011719-11.574219 12.308594-5.621094 26.285156-8.941407 39.246094-12.84375 13.441406-4.046875 26.957031-7.847657 40.539062-11.390625 6.785157-1.773438 13.589844-3.480469 20.410157-5.125 4.5625-1.101563 16.015624-1.53125 19.453124-4.511719-.023437.019531-44.792968 38.832031-44.792968 38.832031-4.582032 3.972656-9.777344 8.472656-13.570313 14.144532-4.992187 7.46875-7.480469 16.511718-8.191406 25.402343-.03125.414063.054687 1.78125.222656 3.679688zm6.269531 60.496093c7.75-3.101562 18.863282-3.117187 26.824219 6.148438 6.515625 7.585938 7.445313 19.707031 2.160157 28.195312-5.285157 8.492188-16.574219 13.007813-26.257813 10.507813s-17.375-11.914063-17.890625-21.902344c-.628906-12.195312 7.421875-19.851562 15.164062-22.949219zm-82.054687 80.3125c-5.027344-.433593-10.261719-3.53125-13.035156-7.710937-1.246094-1.882813-2.511719-4.804687-1.457031-8.039063 1.875-5.753906 9.25-8.800781 16.945312-11.238281 5.480469-1.734375 10.742188-3.410156 15.902344-5.054687 13.804687-4.394532 26.898437-8.5625 41.457031-12.996094 4.195313 9.273438 12.492187 16.6875 22.46875 19.261719 2.648437.683593 5.355469 1.011719 8.0625 1.011719 11.550781 0 23.011719-6 29.1875-15.917969 4.300781-6.90625 5.761719-15.273438 4.527344-23.222657 12.40625-3.605468 24.925781-7.199218 37.359375-10.714843 3.554687 15.371093 15.8125 28.445312 31.234375 32.429687 3.363281.867188 6.804687 1.285156 10.242187 1.285156 14.675782 0 29.230469-7.621093 37.074219-20.21875 6.691406-10.746093 7.972656-24.273437 4.183594-36.191406 8.078125-2.144531 16.195312-4.289062 24.242187-6.386718 2.546875 2.851562 5.675782 5.417968 9.308594 7.558593 6.425781 3.785157 13.429688 5.902344 20.203125 7.949219 1.042969.316406 2.085937.632812 3.125.953125 26.527344 8.195313 45.117187 19.402344 56.832031 34.265625 9.050782 11.484375 14.101563 24.984375 16.792969 39.742188-8.183594-.703126-16.269531-2.398438-24.074219-5.070313-2.039062-.699219-4.136718-1.734375-6.359375-2.835937-5.148437-2.542969-10.980469-5.425782-17.84375-4.71875-12.34375 1.269531-19.347656 12.570312-24.980469 21.648437l-1.109374 1.789063c-4.871094 7.785156-12.996094 14.820312-19.332032 11.855468-4.007812-1.878906-5.734375-6.882812-7.730468-12.679687-1.867188-5.417969-3.980469-11.558594-8.617188-16.007813-4.132812-3.972656-9.855469-6.011718-16.109375-5.742187-7.855469.335937-16.011719 4.28125-21.289063 10.296875-8.132812 9.265625-10.871093 21.683594-13.285156 32.640625l-.203125.929687c-2.304687 10.441406-5.167969 21.195313-12.445312 27.898438-6.128907 5.636718-15.253907 7.769531-23.246094 5.417968-7.988281-2.347656-14.515625-9.070312-16.617187-17.128906-1.050782-4.015625-1.097657-8.363281-1.152344-12.964844-.03125-2.988281-.066406-6.082031-.386719-9.207031-1.152344-11.292969-6.640625-19.8125-14.675781-22.785156-8.589844-3.175781-18.296875.074219-28.847656 9.664063l-.90625.828124c-5.785157 5.273438-11.789063 10.730469-18.207032 10.511719-5.984375-.199219-10.679687-4.964843-16.113281-10.484375-4.445313-4.515625-9.042969-9.183594-15.050781-11.960937-12.550782-5.804688-26.808594-1.082031-36.441406 2.972656-1.265626.535156-2.535157 1.082031-3.808594 1.632813-8.890625 3.839843-17.296875 7.46875-25.824219 6.734374zm6.058594 10.472657c-.035157-.199219-.109375-.375-.167969-.5625 8.421875-.792969 16.265625-4.167969 23.902344-7.464844 1.246094-.539063 2.488281-1.074219 3.722656-1.597656 7.886719-3.320313 19.410156-7.253907 28.367188-3.109375 4.355468 2.015625 8.125 5.84375 12.121093 9.898437 6.0625 6.15625 12.929688 13.132813 22.90625 13.464844 10.496094.351563 18.695313-7.117187 25.277344-13.117187l.894531-.816407c5.203125-4.730469 12.664063-9.898437 18.652344-7.6875 5.152344 1.90625 7.613281 8.699219 8.195312 14.421875.273438 2.675782.304688 5.410156.335938 8.304688.058594 5.003906.117188 10.171875 1.476562 15.378906 2.972657 11.382812 12.1875 20.882812 23.476563 24.195312 3.046875.898438 6.214844 1.332032 9.382813 1.332032 8.558593 0 17.132812-3.171875 23.449218-8.988282 9.417969-8.664062 12.792969-21.101562 15.441406-33.097656l.203126-.933594c2.261718-10.257812 4.597656-20.863281 11.035156-28.199218 3.484375-3.96875 9.058594-6.675782 14.199218-6.898438 2.480469-.101562 6.007813.324219 8.757813 2.964844 2.894531 2.777344 4.445313 7.28125 6.085937 12.050781 2.390626 6.941407 5.101563 14.808594 12.945313 18.480469 11.910156 5.574219 24.679687-3.824219 32.050781-15.609375l1.132813-1.820313c4.9375-7.96875 10.046875-16.207031 17.503906-16.972656 3.984375-.40625 8.066406 1.605469 12.386719 3.738282 2.40625 1.191406 4.898437 2.421874 7.550781 3.332031 9.316406 3.1875 19 5.113281 28.789063 5.746093 1.714843 15.335938 1.421874 31.769532.753906 48.554688-.894532 22.457031-2.976563 45.554688-17.476563 59.511719-14.289062 13.753906-36.179687 15.148437-59.246093 15.425781l-272.21875 3.320312c.023437-.417968.015624-.835937-.066407-1.265624zm415.871093 47.648437c-7.363281 36.515625-19.464843 59.984375-38.085937 73.851563-21.160156 15.761719-48.984375 17.902343-80.523437 18.9375l-238.738282 7.828125c-10.761718.355468-22.960937.753906-32.640625-4.390625-7.375-3.921875-13.058593-12.988281-11.238281-20.542969l279.582031-3.40625c24.152344-.292969 49.148438-1.945312 66.058594-18.222656 17.171875-16.53125 19.5625-41.828125 20.535156-66.320313.171875-4.3125.320313-8.625.417969-12.9375.574219-25.855469.054688-55.644531-12.984375-78.980469 10.910156-11.351562 26.132813-18.285156 41.867187-19.023437.019532 0 .035157-.003906.050782-.007813 15.988281 38.054688 13.683594 83.621094 5.699218 123.214844zm0 0"/></svg>